# xmcd
#
# Track frame offsets: 
#        150
#        20437
#        45050
#        59302
#        83397
#        97097
#        120440
#        160417
#
# Disc length: 2297 seconds
#
# Revision: 5
# Processed by: cddbd v1.5.2PL0 Copyright (c) Steve Scherf et al.
# Submitted via: ExactAudioCopy v0.99pb3
#
DISCID=5108f708
DTITLE=Albert Collins - Ice Pickin'
DYEAR=1978
DGENRE=Blues
TTITLE0=Talking woman blues
TTITLE1=When The Welfare Turns It's Back On You
TTITLE2=Ice Pick
TTITLE3=Cold Cold Feeling
TTITLE4=Too Tired
TTITLE5=Master Charge
TTITLE6=Conversation With Collins
TTITLE7=Avalanche
EXTD=
EXTT0=
EXTT1=
EXTT2=
EXTT3=
EXTT4=
EXTT5=
EXTT6=
EXTT7=
PLAYORDER=
